HIERARCHY
ROOT Hips
{
	OFFSET 0.00000 0.00000 0.00000
	CHANNELS 6 Xposition Yposition Zposition Zrotation Yrotation Xrotation 
	JOINT LHipJoint
	{
		OFFSET 0 0 0
		CHANNELS 3 Zrotation Yrotation Xrotation
		JOINT LeftUpLeg
		{
			OFFSET 1.58895 -1.83665 0.71753
			CHANNELS 3 Zrotation Yrotation Xrotation
			JOINT LeftLeg
			{
				OFFSET 2.50528 -6.88321 0.00000
				CHANNELS 3 Zrotation Yrotation Xrotation
				JOINT LeftFoot
				{
					OFFSET 2.63244 -7.23257 0.00000
					CHANNELS 3 Zrotation Yrotation Xrotation
					JOINT LeftToeBase
					{
						OFFSET 0.23691 -0.65090 1.72750
						CHANNELS 3 Zrotation Yrotation Xrotation
						End Site
						{
							OFFSET 0.00000 -0.00000 0.92561
						}
					}
				}
			}
		}
	}
	JOINT RHipJoint
	{
		OFFSET 0 0 0
		CHANNELS 3 Zrotation Yrotation Xrotation
		JOINT RightUpLeg
		{
			OFFSET -1.51435 -1.83665 0.71753
			CHANNELS 3 Zrotation Yrotation Xrotation
			JOINT RightLeg
			{
				OFFSET -2.54551 -6.99375 0.00000
				CHANNELS 3 Zrotation Yrotation Xrotation
				JOINT RightFoot
				{
					OFFSET -2.66027 -7.30903 0.00000
					CHANNELS 3 Zrotation Yrotation Xrotation
					JOINT RightToeBase
					{
						OFFSET -0.22981 -0.63138 2.03959
						CHANNELS 3 Zrotation Yrotation Xrotation
						End Site
						{
							OFFSET -0.00000 -0.00000 1.07060
						}
					}
				}
			}
		}
	}
	JOINT LowerBack
	{
		OFFSET 0 0 0
		CHANNELS 3 Zrotation Yrotation Xrotation
		JOINT Spine
		{
			OFFSET -0.02651 1.86275 -0.11152
			CHANNELS 3 Zrotation Yrotation Xrotation
			JOINT Spine1
			{
				OFFSET 0.01019 1.86224 0.04087
				CHANNELS 3 Zrotation Yrotation Xrotation
				JOINT Neck
				{
					OFFSET 0 0 0
					CHANNELS 3 Zrotation Yrotation Xrotation
					JOINT Neck1
					{
						OFFSET -0.01926 1.80512 0.08867
						CHANNELS 3 Zrotation Yrotation Xrotation
						JOINT Head
						{
							OFFSET 0.05516 1.76451 -0.38475
							CHANNELS 3 Zrotation Yrotation Xrotation
							End Site
							{
								OFFSET 0.01592 1.82587 -0.14001
							}
						}
					}
				}
				JOINT LeftShoulder
				{
					OFFSET 0 0 0
					CHANNELS 3 Zrotation Yrotation Xrotation
					JOINT LeftArm
					{
						OFFSET 3.47116 1.51376 0.14491
						CHANNELS 3 Zrotation Yrotation Xrotation
						JOINT LeftForeArm
						{
							OFFSET 4.78095 -0.00000 0.00000
							CHANNELS 3 Zrotation Yrotation Xrotation
							JOINT LeftHand
							{
								OFFSET 3.58615 -0.00000 -0.00000
								CHANNELS 3 Zrotation Yrotation Xrotation
								JOINT LeftFingerBase
								{
									OFFSET 0 0 0
									CHANNELS 3 Zrotation Yrotation Xrotation
									JOINT LeftHandIndex1
									{
										OFFSET 0.65981 -0.00000 0.00000
										CHANNELS 3 Zrotation Yrotation Xrotation
										End Site
										{
											OFFSET 0.53196 -0.00000 0.00000
										}
									}
								}
								JOINT LThumb
								{
									OFFSET 0 0 0
									CHANNELS 3 Zrotation Yrotation Xrotation
									End Site
									{
										OFFSET 0.54008 -0.00000 0.54008
									}
								}
							}
						}
					}
				}
				JOINT RightShoulder
				{
					OFFSET 0 0 0
					CHANNELS 3 Zrotation Yrotation Xrotation
					JOINT RightArm
					{
						OFFSET -3.31725 1.61216 0.35156
						CHANNELS 3 Zrotation Yrotation Xrotation
						JOINT RightForeArm
						{
							OFFSET -4.48913 -0.00000 0.00000
							CHANNELS 3 Zrotation Yrotation Xrotation
							JOINT RightHand
							{
								OFFSET -3.70510 -0.00000 0.00000
								CHANNELS 3 Zrotation Yrotation Xrotation
								JOINT RightFingerBase
								{
									OFFSET 0 0 0
									CHANNELS 3 Zrotation Yrotation Xrotation
									JOINT RightHandIndex1
									{
										OFFSET -0.44914 -0.00000 0.00000
										CHANNELS 3 Zrotation Yrotation Xrotation
										End Site
										{
											OFFSET -0.36211 -0.00000 0.00000
										}
									}
								}
								JOINT RThumb
								{
									OFFSET 0 0 0
									CHANNELS 3 Zrotation Yrotation Xrotation
									End Site
									{
										OFFSET -0.36763 -0.00000 0.36763
									}
								}
							}
						}
					}
				}
			}
		}
	}
}
MOTION
Frames: 10
Frame Time: .0083333
-0.6011 18.7676 4.5144 0 0 0 0 0 0 -21 0 0 0 0 0 0 0 0 0 0 0 0 0 0 21 0 0 0 0 0 0 0 0 0 0 0 0 0 0 0 0 0 0 0 0 0 0 -16 0 0 21 0 0 11 0 0 0 -8 0 0 0 0 0 0 0 0 0 0 0 0 0 0 0 0 0 0 0 0 8 0 0 0 0 0 0 0 0 0 0 0 0 0 0 0 0 0
-0.6011 18.7676 4.5144 -2.3318 -2.7855 4.7604 0.0000 0.0000 0.0000 -12.2945 -9.0174 -5.4917 1.2948 7.2094 20.3373 1.5312 3.6584 -24.9367 7.9969 -16.1170 -52.5517 0.0000 0.0000 0.0000 15.7936 -10.0150 -1.4246 0.0000 0.0000 -0.0000 -0.1700 1.4869 -7.4082 -0.0197 0.9061 -2.4904 -1.0914 1.3786 -2.2773 0.3495 1.8534 -2.9018 0.9817 0.9520 -1.7452 -2.1504 -3.9183 -8.9206 4.0176 -6.1229 24.4134 1.0882 -2.6441 9.3285 0.0000 0.0000 0.0000 -90.8820 12.1533 25.1235 20.5782 -31.3327 -5.8291 -0.0000 -0.0000 8.8845 13.2758 -30.6402 -6.8567 -7.1250 0.0000 -0.0000 -10.2961 -0.9018 10.6289 0.0000 0.0000 0.0000 88.6120 -20.4129 28.3301 -25.4657 36.6762 -8.5665 0.0000 0.0000 14.2560 -11.1000 -40.2870 7.2300 7.1250 -0.0000 -0.0000 34.2868 -67.8491 -19.7179
-0.6014 18.7669 4.5148 -2.2734 -2.7617 4.7372 0.0000 0.0000 0.0000 -12.3631 -9.0028 -5.4719 1.2931 7.2049 20.3237 1.5234 3.6643 -24.8809 8.0188 -16.1331 -52.6304 0.0000 0.0000 0.0000 15.7321 -10.0483 -1.4124 0.0000 0.0000 -0.0000 -0.1702 1.4914 -7.4122 -0.0225 0.9684 -2.6619 -1.1372 1.3773 -2.2357 0.3315 1.8515 -2.9180 0.9874 0.9520 -1.7860 -2.1064 -3.9081 -8.8886 3.9850 -6.1068 24.3778 1.0722 -2.6371 9.3068 0.0000 -0.0000 0.0000 -90.8470 12.1899 25.2114 20.6162 -31.3776 -5.8488 -0.0000 -0.0000 8.7902 13.1480 -30.5983 -6.7807 -7.1250 0.0000 -0.0000 -10.3658 -0.8410 10.6924 0.0000 -0.0000 0.0000 88.6348 -20.4391 28.3217 -25.4661 36.6766 -8.5667 0.0000 0.0000 14.3021 -11.4716 -40.1805 7.4595 7.1250 -0.0000 -0.0000 33.7226 -67.8788 -19.3865
-0.6022 18.7651 4.5151 -2.2256 -2.7366 4.6941 0.0000 0.0000 0.0000 -12.4172 -8.9917 -5.4415 1.2927 7.2040 20.3212 1.5192 3.6368 -24.8358 8.0156 -16.1307 -52.6188 0.0000 0.0000 0.0000 15.6812 -10.0887 -1.3764 0.0000 0.0000 -0.0000 -0.1713 1.5068 -7.4361 -0.0306 1.1299 -3.1062 -1.1864 1.3631 -2.2046 0.3222 1.8325 -2.9068 1.0047 0.9433 -1.7926 -2.0252 -3.8833 -8.8988 3.9151 -6.0684 24.3588 1.0387 -2.6193 9.2957 0.0000 0.0000 0.0000 -90.8175 12.1854 25.2544 20.6396 -31.4052 -5.8610 -0.0000 -0.0000 8.7218 13.1286 -30.5478 -6.7604 -7.1250 0.0000 -0.0000 -10.3727 -0.7881 10.6902 0.0000 0.0000 0.0000 88.6084 -20.4459 28.4278 -25.4844 36.6950 -8.5777 0.0000 0.0000 14.2660 -12.2174 -39.8859 7.9050 7.1250 -0.0000 -0.0000 32.4619 -67.8718 -18.5961
-0.6039 18.7640 4.5156 -2.2258 -2.7061 4.6529 0.0000 0.0000 0.0000 -12.3976 -8.8606 -5.4567 1.2926 7.2035 20.3197 1.5138 3.5173 -24.7364 8.0192 -16.1333 -52.6317 0.0000 0.0000 0.0000 15.6847 -10.1342 -1.3297 0.0000 -0.0000 0.0000 -0.1736 1.5336 -7.4820 -0.0421 1.3241 -3.6409 -1.1899 1.3603 -2.1869 0.3261 1.8288 -2.8806 1.0105 0.9414 -1.7758 -1.9974 -3.8629 -8.9055 3.9161 -6.0416 24.2971 1.0373 -2.6049 9.2734 0.0000 -0.0000 0.0000 -90.7971 12.1323 25.2627 20.6321 -31.3964 -5.8571 -0.0000 -0.0000 8.7248 13.2449 -30.4943 -6.8112 -7.1250 0.0000 -0.0000 -10.3017 -0.7527 10.6083 0.0000 -0.0000 0.0000 88.6011 -20.4137 28.4601 -25.4918 36.7024 -8.5821 0.0000 0.0000 14.2207 -12.6385 -39.5562 8.1268 7.1250 -0.0000 -0.0000 31.5022 -67.7328 -17.9058
-0.6061 18.7633 4.5159 -2.2160 -2.6771 4.6023 0.0000 0.0000 0.0000 -12.3961 -8.7841 -5.4248 1.2929 7.2044 20.3224 1.5145 3.4358 -24.7017 8.0088 -16.1257 -52.5943 0.0000 0.0000 0.0000 15.6789 -10.1826 -1.2708 0.0000 -0.0000 0.0000 -0.1749 1.5544 -7.5077 -0.0557 1.5232 -4.1896 -1.1962 1.3719 -2.1389 0.3170 1.8436 -2.8670 1.0037 0.9488 -1.7890 -1.9925 -3.8479 -8.8717 3.9643 -6.0284 24.2069 1.0553 -2.5951 9.2365 0.0000 -0.0000 0.0000 -90.7587 12.0990 25.2995 20.6142 -31.3753 -5.8478 -0.0000 -0.0000 8.7307 13.3337 -30.5099 -6.8613 -7.1250 0.0000 -0.0000 -10.2522 -0.7816 10.5607 0.0000 -0.0000 0.0000 88.6451 -20.3781 28.3938 -25.4768 36.6873 -8.5731 0.0000 0.0000 14.2255 -12.5499 -39.3667 8.0368 7.1250 -0.0000 -0.0000 31.3147 -67.5508 -17.6642
-0.6076 18.7628 4.5163 -2.1894 -2.6584 4.5552 0.0000 0.0000 0.0000 -12.4321 -8.8485 -5.3453 1.2945 7.2088 20.3354 1.5239 3.4134 -24.7617 7.9799 -16.1045 -52.4903 0.0000 0.0000 0.0000 15.6518 -10.2170 -1.2255 0.0000 -0.0000 0.0000 -0.1742 1.5471 -7.4928 -0.0684 1.6872 -4.6419 -1.2197 1.3884 -2.0907 0.3053 1.8651 -2.8693 1.0035 0.9601 -1.8194 -1.9862 -3.8437 -8.8308 3.9974 -6.0291 24.1580 1.0664 -2.5928 9.2126 -0.0000 0.0000 0.0000 -90.7293 12.1020 25.3394 20.6106 -31.3710 -5.8459 -0.0000 -0.0000 8.7952 13.2989 -30.5343 -6.8478 -7.1250 0.0000 -0.0000 -10.2741 -0.8005 10.5874 -0.0000 0.0000 0.0000 88.6708 -20.3825 28.3531 -25.4720 36.6826 -8.5703 0.0000 0.0000 14.2278 -11.3180 -39.6490 7.2779 7.1250 -0.0000 -0.0000 33.0653 -67.4067 -18.6299
-0.6079 18.7627 4.5177 -2.1862 -2.6389 4.4961 0.0000 0.0000 0.0000 -12.4514 -8.8899 -5.2782 1.2977 7.2173 20.3608 1.5266 3.4410 -24.7954 8.0065 -16.1240 -52.5860 0.0000 0.0000 0.0000 15.6395 -10.2538 -1.1681 0.0000 -0.0000 0.0000 -0.1737 1.5260 -7.4867 -0.0718 1.7290 -4.7573 -1.2062 1.3961 -2.0387 0.3045 1.8747 -2.8731 0.9937 0.9648 -1.8521 -1.9989 -3.8454 -8.7786 4.0265 -6.0355 24.1375 1.0789 -2.5950 9.1972 -0.0000 0.0000 0.0000 -90.7253 12.1092 25.3102 20.5936 -31.3509 -5.8371 -0.0000 -0.0000 8.9061 13.2308 -30.5373 -6.8124 -7.1250 0.0000 -0.0000 -10.3134 -0.7932 10.6279 -0.0000 0.0000 0.0000 88.6680 -20.4149 28.3639 -25.4794 36.6900 -8.5747 0.0000 0.0000 14.2201 -10.2056 -40.0220 6.6039 7.1250 -0.0000 -0.0000 34.8162 -67.3669 -19.6798
-0.6083 18.7619 4.5189 -2.1886 -2.6080 4.4318 0.0000 0.0000 0.0000 -12.4572 -8.8564 -5.2539 1.3027 7.2306 20.4003 1.5229 3.4649 -24.7793 8.0529 -16.1580 -52.7530 0.0000 0.0000 0.0000 15.6326 -10.3039 -1.1052 0.0000 -0.0000 0.0000 -0.1740 1.5164 -7.4932 -0.0671 1.6712 -4.5978 -1.1714 1.3941 -1.9852 0.2977 1.8712 -2.8649 0.9659 0.9624 -1.8722 -2.0218 -3.8478 -8.7467 4.0512 -6.0406 24.1290 1.0913 -2.5975 9.1899 -0.0000 0.0000 0.0000 -90.6990 12.1047 25.3295 20.5765 -31.3306 -5.8281 -0.0000 -0.0000 8.8655 13.3066 -30.5232 -6.8496 -7.1250 0.0000 -0.0000 -10.2688 -0.7906 10.5800 -0.0000 0.0000 0.0000 88.6663 -20.4122 28.3969 -25.4655 36.6760 -8.5664 0.0000 0.0000 14.2188 -11.3920 -39.5968 7.3182 7.1250 -0.0000 -0.0000 32.9076 -67.3870 -18.5189
-0.6098 18.7606 4.5209 -2.1857 -2.5586 4.3594 0.0000 0.0000 0.0000 -12.4608 -8.8462 -5.2183 1.3087 7.2467 20.4482 1.5221 3.4359 -24.7591 8.0417 -16.1499 -52.7129 0.0000 0.0000 0.0000 15.6238 -10.3755 -1.0356 0.0000 -0.0000 0.0000 -0.1746 1.5120 -7.5073 -0.0674 1.6747 -4.6075 -1.1531 1.3924 -1.9393 0.2952 1.8683 -2.8459 0.9522 0.9604 -1.8776 -2.0482 -3.8540 -8.7647 4.0461 -6.0451 24.1729 1.0931 -2.6014 9.2095 0.0000 -0.0000 0.0000 -90.6832 12.1031 25.3800 20.5750 -31.3289 -5.8274 -0.0000 -0.0000 8.8116 13.3983 -30.5701 -6.9076 -7.1250 0.0000 -0.0000 -10.2202 -0.8510 10.5390 0.0000 -0.0000 0.0000 88.6624 -20.3902 28.4160 -25.4513 36.6617 -8.5579 0.0000 0.0000 14.1810 -12.5221 -39.2300 7.9956 7.1250 -0.0000 -0.0000 31.1425 -67.4301 -17.4757
